<svg id="visual" viewBox="0 0 960 320" width="960" height="320" xmlns="http://www.w3.org/2000/svg" xmlns:xlink="http://www.w3.org/1999/xlink" version="1.1"><rect x="0" y="0" width="960" height="320" fill="#001220"></rect><path d="M0 213L22.8 212.7C45.7 212.3 91.3 211.7 137 219.8C182.7 228 228.3 245 274 237.2C319.7 229.3 365.3 196.7 411.2 198.3C457 200 503 236 548.8 245.3C594.7 254.7 640.3 237.3 686 219.8C731.7 202.3 777.3 184.7 823 189.3C868.7 194 914.3 221 937.2 234.5L960 248L960 0L937.2 0C914.3 0 868.7 0 823 0C777.3 0 731.7 0 686 0C640.3 0 594.7 0 548.8 0C503 0 457 0 411.2 0C365.3 0 319.7 0 274 0C228.3 0 182.7 0 137 0C91.3 0 45.7 0 22.8 0L0 0Z" fill="#8963ba"></path><path d="M0 162L22.8 171.8C45.7 181.7 91.3 201.3 137 207.2C182.7 213 228.3 205 274 192.3C319.7 179.7 365.3 162.3 411.2 164.7C457 167 503 189 548.8 191C594.7 193 640.3 175 686 159.8C731.7 144.7 777.3 132.3 823 139.2C868.7 146 914.3 172 937.2 185L960 198L960 0L937.2 0C914.3 0 868.7 0 823 0C777.3 0 731.7 0 686 0C640.3 0 594.7 0 548.8 0C503 0 457 0 411.2 0C365.3 0 319.7 0 274 0C228.3 0 182.7 0 137 0C91.3 0 45.7 0 22.8 0L0 0Z" fill="#9f55ac"></path><path d="M0 164L22.8 163C45.7 162 91.3 160 137 154.7C182.7 149.3 228.3 140.7 274 130C319.7 119.3 365.3 106.7 411.2 105.5C457 104.3 503 114.7 548.8 128.7C594.7 142.7 640.3 160.3 686 156.3C731.7 152.3 777.3 126.7 823 125.3C868.7 124 914.3 147 937.2 158.5L960 170L960 0L937.2 0C914.3 0 868.7 0 823 0C777.3 0 731.7 0 686 0C640.3 0 594.7 0 548.8 0C503 0 457 0 411.2 0C365.3 0 319.7 0 274 0C228.3 0 182.7 0 137 0C91.3 0 45.7 0 22.8 0L0 0Z" fill="#b14599"></path><path d="M0 114L22.8 106.8C45.7 99.7 91.3 85.3 137 76C182.7 66.7 228.3 62.3 274 68.8C319.7 75.3 365.3 92.7 411.2 102.2C457 111.7 503 113.3 548.8 110C594.7 106.7 640.3 98.3 686 90.8C731.7 83.3 777.3 76.7 823 82.7C868.7 88.7 914.3 107.3 937.2 116.7L960 126L960 0L937.2 0C914.3 0 868.7 0 823 0C777.3 0 731.7 0 686 0C640.3 0 594.7 0 548.8 0C503 0 457 0 411.2 0C365.3 0 319.7 0 274 0C228.3 0 182.7 0 137 0C91.3 0 45.7 0 22.8 0L0 0Z" fill="#be3482"></path><path d="M0 30L22.8 37.8C45.7 45.7 91.3 61.3 137 66.2C182.7 71 228.3 65 274 63.8C319.7 62.7 365.3 66.3 411.2 60.2C457 54 503 38 548.8 32.5C594.7 27 640.3 32 686 35.2C731.7 38.3 777.3 39.7 823 44.5C868.7 49.3 914.3 57.7 937.2 61.8L960 66L960 0L937.2 0C914.3 0 868.7 0 823 0C777.3 0 731.7 0 686 0C640.3 0 594.7 0 548.8 0C503 0 457 0 411.2 0C365.3 0 319.7 0 274 0C228.3 0 182.7 0 137 0C91.3 0 45.7 0 22.8 0L0 0Z" fill="#c62368"></path></svg>