<svg id="visual" viewBox="0 0 1920 350" width="1920" height="350" xmlns="http://www.w3.org/2000/svg" xmlns:xlink="http://www.w3.org/1999/xlink" version="1.1"><path d="M0 234L45.7 233.5C91.3 233 182.7 232 274.2 240.8C365.7 249.7 457.3 268.3 548.8 259.8C640.3 251.3 731.7 215.7 823 217.5C914.3 219.3 1005.7 258.7 1097 268.7C1188.3 278.7 1279.7 259.3 1371.2 240.2C1462.7 221 1554.3 202 1645.8 207.2C1737.3 212.3 1828.7 241.7 1874.3 256.3L1920 271L1920 0L1874.3 0C1828.7 0 1737.3 0 1645.8 0C1554.3 0 1462.7 0 1371.2 0C1279.7 0 1188.3 0 1097 0C1005.7 0 914.3 0 823 0C731.7 0 640.3 0 548.8 0C457.3 0 365.7 0 274.2 0C182.7 0 91.3 0 45.7 0L0 0Z" fill="#8963ba"></path><path d="M0 177L45.7 187.8C91.3 198.7 182.7 220.3 274.2 226.7C365.7 233 457.3 224 548.8 210C640.3 196 731.7 177 823 179.7C914.3 182.3 1005.7 206.7 1097 209C1188.3 211.3 1279.7 191.7 1371.2 175C1462.7 158.3 1554.3 144.7 1645.8 152.2C1737.3 159.7 1828.7 188.3 1874.3 202.7L1920 217L1920 0L1874.3 0C1828.7 0 1737.3 0 1645.8 0C1554.3 0 1462.7 0 1371.2 0C1279.7 0 1188.3 0 1097 0C1005.7 0 914.3 0 823 0C731.7 0 640.3 0 548.8 0C457.3 0 365.7 0 274.2 0C182.7 0 91.3 0 45.7 0L0 0Z" fill="#9f55ac"></path><path d="M0 179L45.7 178C91.3 177 182.7 175 274.2 169.2C365.7 163.3 457.3 153.7 548.8 142C640.3 130.3 731.7 116.7 823 115.5C914.3 114.3 1005.7 125.7 1097 141C1188.3 156.3 1279.7 175.7 1371.2 171.3C1462.7 167 1554.3 139 1645.8 137.3C1737.3 135.7 1828.7 160.3 1874.3 172.7L1920 185L1920 0L1874.3 0C1828.7 0 1737.3 0 1645.8 0C1554.3 0 1462.7 0 1371.2 0C1279.7 0 1188.3 0 1097 0C1005.7 0 914.3 0 823 0C731.7 0 640.3 0 548.8 0C457.3 0 365.7 0 274.2 0C182.7 0 91.3 0 45.7 0L0 0Z" fill="#b14599"></path><path d="M0 125L45.7 117.2C91.3 109.3 182.7 93.7 274.2 83.3C365.7 73 457.3 68 548.8 75.2C640.3 82.3 731.7 101.7 823 112C914.3 122.3 1005.7 123.7 1097 120C1188.3 116.3 1279.7 107.7 1371.2 99.5C1462.7 91.3 1554.3 83.7 1645.8 90.2C1737.3 96.7 1828.7 117.3 1874.3 127.7L1920 138L1920 0L1874.3 0C1828.7 0 1737.3 0 1645.8 0C1554.3 0 1462.7 0 1371.2 0C1279.7 0 1188.3 0 1097 0C1005.7 0 914.3 0 823 0C731.7 0 640.3 0 548.8 0C457.3 0 365.7 0 274.2 0C182.7 0 91.3 0 45.7 0L0 0Z" fill="#be3482"></path><path d="M0 32L45.7 40.7C91.3 49.3 182.7 66.7 274.2 72.2C365.7 77.7 457.3 71.3 548.8 70.2C640.3 69 731.7 73 823 66.3C914.3 59.7 1005.7 42.3 1097 36.3C1188.3 30.3 1279.7 35.7 1371.2 39C1462.7 42.3 1554.3 43.7 1645.8 49C1737.3 54.3 1828.7 63.7 1874.3 68.3L1920 73L1920 0L1874.3 0C1828.7 0 1737.3 0 1645.8 0C1554.3 0 1462.7 0 1371.2 0C1279.7 0 1188.3 0 1097 0C1005.7 0 914.3 0 823 0C731.7 0 640.3 0 548.8 0C457.3 0 365.7 0 274.2 0C182.7 0 91.3 0 45.7 0L0 0Z" fill="#c62368"></path></svg>