<svg id="visual" viewBox="0 0 960 540" width="960" height="540" xmlns="http://www.w3.org/2000/svg" xmlns:xlink="http://www.w3.org/1999/xlink" version="1.1"><path d="M0 425L22.8 419.5C45.7 414 91.3 403 137 389C182.7 375 228.3 358 274 363.7C319.7 369.3 365.3 397.7 411.2 412.2C457 426.7 503 427.3 548.8 406.7C594.7 386 640.3 344 686 327.5C731.7 311 777.3 320 823 342C868.7 364 914.3 399 937.2 416.5L960 434L960 0L937.2 0C914.3 0 868.7 0 823 0C777.3 0 731.7 0 686 0C640.3 0 594.7 0 548.8 0C503 0 457 0 411.2 0C365.3 0 319.7 0 274 0C228.3 0 182.7 0 137 0C91.3 0 45.7 0 22.8 0L0 0Z" fill="#8963ba"></path><path d="M0 316L22.8 301.7C45.7 287.3 91.3 258.7 137 266.2C182.7 273.7 228.3 317.3 274 330.2C319.7 343 365.3 325 411.2 319.8C457 314.7 503 322.3 548.8 314.5C594.7 306.7 640.3 283.3 686 281.7C731.7 280 777.3 300 823 300.3C868.7 300.7 914.3 281.3 937.2 271.7L960 262L960 0L937.2 0C914.3 0 868.7 0 823 0C777.3 0 731.7 0 686 0C640.3 0 594.7 0 548.8 0C503 0 457 0 411.2 0C365.3 0 319.7 0 274 0C228.3 0 182.7 0 137 0C91.3 0 45.7 0 22.8 0L0 0Z" fill="#9f55ac"></path><path d="M0 291L22.8 278C45.7 265 91.3 239 137 228C182.7 217 228.3 221 274 225.3C319.7 229.7 365.3 234.3 411.2 245C457 255.7 503 272.3 548.8 269.5C594.7 266.7 640.3 244.3 686 241.8C731.7 239.3 777.3 256.7 823 247.2C868.7 237.7 914.3 201.3 937.2 183.2L960 165L960 0L937.2 0C914.3 0 868.7 0 823 0C777.3 0 731.7 0 686 0C640.3 0 594.7 0 548.8 0C503 0 457 0 411.2 0C365.3 0 319.7 0 274 0C228.3 0 182.7 0 137 0C91.3 0 45.7 0 22.8 0L0 0Z" fill="#b14599"></path><path d="M0 141L22.8 140.8C45.7 140.7 91.3 140.3 137 140.7C182.7 141 228.3 142 274 136C319.7 130 365.3 117 411.2 120.2C457 123.3 503 142.7 548.8 152.3C594.7 162 640.3 162 686 162.8C731.7 163.7 777.3 165.3 823 156C868.7 146.7 914.3 126.3 937.2 116.2L960 106L960 0L937.2 0C914.3 0 868.7 0 823 0C777.3 0 731.7 0 686 0C640.3 0 594.7 0 548.8 0C503 0 457 0 411.2 0C365.3 0 319.7 0 274 0C228.3 0 182.7 0 137 0C91.3 0 45.7 0 22.8 0L0 0Z" fill="#be3482"></path><path d="M0 127L22.8 114.2C45.7 101.3 91.3 75.7 137 65.5C182.7 55.3 228.3 60.7 274 69.5C319.7 78.3 365.3 90.7 411.2 100.2C457 109.7 503 116.3 548.8 106.5C594.7 96.7 640.3 70.3 686 69.8C731.7 69.3 777.3 94.7 823 104.7C868.7 114.7 914.3 109.3 937.2 106.7L960 104L960 0L937.2 0C914.3 0 868.7 0 823 0C777.3 0 731.7 0 686 0C640.3 0 594.7 0 548.8 0C503 0 457 0 411.2 0C365.3 0 319.7 0 274 0C228.3 0 182.7 0 137 0C91.3 0 45.7 0 22.8 0L0 0Z" fill="#c62368"></path></svg>