<svg id="visual" viewBox="0 0 1920 380" width="1920" height="380" xmlns="http://www.w3.org/2000/svg" xmlns:xlink="http://www.w3.org/1999/xlink" version="1.1"><path d="M0 254L45.7 253.5C91.3 253 182.7 252 274.2 261.7C365.7 271.3 457.3 291.7 548.8 282.3C640.3 273 731.7 234 823 236C914.3 238 1005.7 281 1097 292C1188.3 303 1279.7 282 1371.2 261.2C1462.7 240.3 1554.3 219.7 1645.8 225.2C1737.3 230.7 1828.7 262.3 1874.3 278.2L1920 294L1920 0L1874.3 0C1828.7 0 1737.3 0 1645.8 0C1554.3 0 1462.7 0 1371.2 0C1279.7 0 1188.3 0 1097 0C1005.7 0 914.3 0 823 0C731.7 0 640.3 0 548.8 0C457.3 0 365.7 0 274.2 0C182.7 0 91.3 0 45.7 0L0 0Z" fill="#8963ba"></path><path d="M0 192L45.7 203.7C91.3 215.3 182.7 238.7 274.2 245.7C365.7 252.7 457.3 243.3 548.8 228.3C640.3 213.3 731.7 192.7 823 195.5C914.3 198.3 1005.7 224.7 1097 227.2C1188.3 229.7 1279.7 208.3 1371.2 190.2C1462.7 172 1554.3 157 1645.8 165.2C1737.3 173.3 1828.7 204.7 1874.3 220.3L1920 236L1920 0L1874.3 0C1828.7 0 1737.3 0 1645.8 0C1554.3 0 1462.7 0 1371.2 0C1279.7 0 1188.3 0 1097 0C1005.7 0 914.3 0 823 0C731.7 0 640.3 0 548.8 0C457.3 0 365.7 0 274.2 0C182.7 0 91.3 0 45.7 0L0 0Z" fill="#9f55ac"></path><path d="M0 195L45.7 193.8C91.3 192.7 182.7 190.3 274.2 183.8C365.7 177.3 457.3 166.7 548.8 154C640.3 141.3 731.7 126.7 823 125.5C914.3 124.3 1005.7 136.7 1097 153.2C1188.3 169.7 1279.7 190.3 1371.2 185.5C1462.7 180.7 1554.3 150.3 1645.8 148.7C1737.3 147 1828.7 174 1874.3 187.5L1920 201L1920 0L1874.3 0C1828.7 0 1737.3 0 1645.8 0C1554.3 0 1462.7 0 1371.2 0C1279.7 0 1188.3 0 1097 0C1005.7 0 914.3 0 823 0C731.7 0 640.3 0 548.8 0C457.3 0 365.7 0 274.2 0C182.7 0 91.3 0 45.7 0L0 0Z" fill="#b14599"></path><path d="M0 136L45.7 127.3C91.3 118.7 182.7 101.3 274.2 90.2C365.7 79 457.3 74 548.8 81.8C640.3 89.7 731.7 110.3 823 121.5C914.3 132.7 1005.7 134.3 1097 130.3C1188.3 126.3 1279.7 116.7 1371.2 107.8C1462.7 99 1554.3 91 1645.8 98.2C1737.3 105.3 1828.7 127.7 1874.3 138.8L1920 150L1920 0L1874.3 0C1828.7 0 1737.3 0 1645.8 0C1554.3 0 1462.7 0 1371.2 0C1279.7 0 1188.3 0 1097 0C1005.7 0 914.3 0 823 0C731.7 0 640.3 0 548.8 0C457.3 0 365.7 0 274.2 0C182.7 0 91.3 0 45.7 0L0 0Z" fill="#be3482"></path><path d="M0 35L45.7 44.3C91.3 53.7 182.7 72.3 274.2 78.3C365.7 84.3 457.3 77.7 548.8 76.3C640.3 75 731.7 79 823 71.7C914.3 64.3 1005.7 45.7 1097 39.3C1188.3 33 1279.7 39 1371.2 42.7C1462.7 46.3 1554.3 47.7 1645.8 53.3C1737.3 59 1828.7 69 1874.3 74L1920 79L1920 0L1874.3 0C1828.7 0 1737.3 0 1645.8 0C1554.3 0 1462.7 0 1371.2 0C1279.7 0 1188.3 0 1097 0C1005.7 0 914.3 0 823 0C731.7 0 640.3 0 548.8 0C457.3 0 365.7 0 274.2 0C182.7 0 91.3 0 45.7 0L0 0Z" fill="#c62368"></path></svg>